<?xml version="1.0" encoding="UTF-8" standalone="no"?>
<!-- Generator: Adobe Illustrator 19.0.0, SVG Export Plug-In . SVG Version: 6.00 Build 0)  -->

<svg
   xmlns:dc="http://purl.org/dc/elements/1.1/"
   xmlns:cc="http://creativecommons.org/ns#"
   xmlns:rdf="http://www.w3.org/1999/02/22-rdf-syntax-ns#"
   xmlns:svg="http://www.w3.org/2000/svg"
   xmlns="http://www.w3.org/2000/svg"
   xmlns:xlink="http://www.w3.org/1999/xlink"
   xmlns:sodipodi="http://sodipodi.sourceforge.net/DTD/sodipodi-0.dtd"
   xmlns:inkscape="http://www.inkscape.org/namespaces/inkscape"
   version="1.1"
   id="Layer_1"
   x="0px"
   y="0px"
   viewBox="0 0 512 512"
   style="enable-background:new 0 0 512 512;"
   xml:space="preserve"
   sodipodi:docname="United-states_flag_icon_round.svg"
   inkscape:version="0.92.5 (2060ec1f9f, 2020-04-08)"
   inkscape:export-filename="C:\dev\webs\mycv\img\24px-United-states_flag_icon_round.svg.png"
   inkscape:export-xdpi="5.0500002"
   inkscape:export-ydpi="5.0500002"><metadata
   id="metadata6856"><rdf:RDF><cc:Work
       rdf:about=""><dc:format>image/svg+xml</dc:format><dc:type
         rdf:resource="http://purl.org/dc/dcmitype/StillImage" /></cc:Work></rdf:RDF></metadata><defs
   id="defs6854"><linearGradient
     gradientTransform="matrix(1.670386,0,0,1.670386,2.9136635,3.2118959)"
     inkscape:collect="always"
     xlink:href="#linearGradient3659"
     id="linearGradient3665"
     x1="149.21875"
     y1="14.625"
     x2="149.21875"
     y2="154.20808"
     gradientUnits="userSpaceOnUse" /><linearGradient
     id="linearGradient3659"><stop
       style="stop-color:#ffffff;stop-opacity:0.58823532;"
       offset="0"
       id="stop3661" /><stop
       style="stop-color:#ffffff;stop-opacity:0.07843138;"
       offset="1"
       id="stop3663" /></linearGradient><linearGradient
     inkscape:collect="always"
     xlink:href="#linearGradient3900"
     id="linearGradient4378"
     x1="247.14284"
     y1="118.0229"
     x2="247.14284"
     y2="168.0229"
     gradientUnits="userSpaceOnUse"
     gradientTransform="matrix(1.7119623,0,0,1.7539053,-169.41884,-177.35763)" /><linearGradient
     id="linearGradient3900"><stop
       style="stop-color:#ffffff;stop-opacity:0.70588237;"
       offset="0"
       id="stop3908" /><stop
       id="stop3904"
       offset="1"
       style="stop-color:#ffffff;stop-opacity:0.15686275;" /></linearGradient><linearGradient
     gradientTransform="matrix(1.0835546,0,0,1.082858,-62.334349,-135.50509)"
     inkscape:collect="always"
     xlink:href="#linearGradient3632"
     id="linearGradient3638"
     x1="94.744499"
     y1="167.12433"
     x2="488.11261"
     y2="557.60004"
     gradientUnits="userSpaceOnUse" /><linearGradient
     id="linearGradient3632"><stop
       style="stop-color:#ffffff;stop-opacity:1;"
       offset="0"
       id="stop3634" /><stop
       id="stop4375"
       offset="0.26565507"
       style="stop-color:#ffffff;stop-opacity:0;" /><stop
       id="stop4373"
       offset="0.73055643"
       style="stop-color:#ffffff;stop-opacity:0;" /><stop
       style="stop-color:#ffffff;stop-opacity:1;"
       offset="1"
       id="stop3636" /></linearGradient></defs><sodipodi:namedview
   pagecolor="#ffffff"
   bordercolor="#666666"
   borderopacity="1"
   objecttolerance="10"
   gridtolerance="10"
   guidetolerance="10"
   inkscape:pageopacity="0"
   inkscape:pageshadow="2"
   inkscape:window-width="1366"
   inkscape:window-height="705"
   id="namedview6852"
   showgrid="false"
   inkscape:zoom="1.046875"
   inkscape:cx="256"
   inkscape:cy="261.97426"
   inkscape:window-x="-8"
   inkscape:window-y="-8"
   inkscape:window-maximized="1"
   inkscape:current-layer="Layer_1" />
<circle
   style="fill:#f0f0f0;stroke-width:0.89180374"
   cx="256"
   cy="255.99675"
   id="circle6807"
   r="228.30176" />
<g
   id="g6817"
   transform="matrix(0.89180377,0,0,0.89180377,27.698236,27.694979)">
	<path
   style="fill:#d80027"
   d="M 244.87,256 H 512 c 0,-23.106 -3.08,-45.49 -8.819,-66.783 H 244.87 Z"
   id="path6809"
   inkscape:connector-curvature="0" />
	<path
   style="fill:#d80027"
   d="M 244.87,122.435 H 474.426 C 458.755,96.863 438.718,74.26 415.356,55.652 H 244.87 Z"
   id="path6811"
   inkscape:connector-curvature="0" />
	<path
   style="fill:#d80027"
   d="m 256,512 c 60.249,0 115.626,-20.824 159.356,-55.652 H 96.644 C 140.374,491.176 195.751,512 256,512 Z"
   id="path6813"
   inkscape:connector-curvature="0" />
	<path
   style="fill:#d80027"
   d="m 37.574,389.565 h 436.852 c 12.581,-20.529 22.338,-42.969 28.755,-66.783 H 8.819 c 6.417,23.814 16.174,46.254 28.755,66.783 z"
   id="path6815"
   inkscape:connector-curvature="0" />
</g>
<path
   style="fill:#0052b4;stroke-width:0.89180374"
   d="m 133.45189,63.34751 h 20.80489 L 134.90464,77.406796 142.2968,100.15582 122.94555,86.096532 103.5943,100.15582 109.97962,80.503139 C 92.940816,94.696196 78.00667,111.32477 65.699778,129.85288 h 6.666233 l -12.318485,8.94925 c -1.919162,3.20158 -3.759845,6.45399 -5.523833,9.75455 l 5.882338,18.10451 -10.974537,-7.97361 c -2.728028,5.77978 -5.223295,11.68976 -7.466182,17.72281 l 6.480738,19.94787 h 23.919961 l -19.352142,14.05928 7.392162,22.74903 -19.35125,-14.05929 -11.591666,8.4222 c -1.160236,9.32648 -1.764879,18.82597 -1.764879,28.46726 H 256 c 0,-126.08678 0,-140.95137 0,-228.301761 -45.1003,0 -87.14261,13.082761 -122.54811,35.652531 z m 8.84491,169.81906 -19.35125,-14.05929 -19.35125,14.05929 7.39216,-22.74903 -19.352137,-14.05928 h 23.919957 l 7.39127,-22.74902 7.39127,22.74902 h 23.91996 l -19.35214,14.05928 z m -7.39216,-89.2544 7.39216,22.74902 -19.35125,-14.05928 -19.35125,14.05928 7.39216,-22.74902 -19.352137,-14.05929 h 23.919957 l 7.39127,-22.74902 7.39127,22.74902 h 23.91996 z m 89.28294,89.2544 -19.35125,-14.05929 -19.35125,14.05929 7.39216,-22.74903 -19.35214,-14.05928 h 23.91996 l 7.39127,-22.74902 7.39127,22.74902 h 23.91996 l -19.35215,14.05928 z m -7.39217,-89.2544 7.39217,22.74902 -19.35125,-14.05928 -19.35125,14.05928 7.39216,-22.74902 -19.35214,-14.05929 h 23.91996 l 7.39127,-22.74902 7.39127,22.74902 h 23.91996 z m 0,-66.505374 7.39217,22.749024 L 204.83633,86.096532 185.48508,100.15582 192.87724,77.406796 173.5251,63.34751 h 23.91996 l 7.39127,-22.749022 7.39127,22.749022 h 23.91996 z"
   id="path6819"
   inkscape:connector-curvature="0" />
<g
   id="g6821"
   transform="matrix(0.89180377,0,0,0.89180377,27.698236,27.694979)">
</g>
<g
   id="g6823"
   transform="matrix(0.89180377,0,0,0.89180377,27.698236,27.694979)">
</g>
<g
   id="g6825"
   transform="matrix(0.89180377,0,0,0.89180377,27.698236,27.694979)">
</g>
<g
   id="g6827"
   transform="matrix(0.89180377,0,0,0.89180377,27.698236,27.694979)">
</g>
<g
   id="g6829"
   transform="matrix(0.89180377,0,0,0.89180377,27.698236,27.694979)">
</g>
<g
   id="g6831"
   transform="matrix(0.89180377,0,0,0.89180377,27.698236,27.694979)">
</g>
<g
   id="g6833"
   transform="matrix(0.89180377,0,0,0.89180377,27.698236,27.694979)">
</g>
<g
   id="g6835"
   transform="matrix(0.89180377,0,0,0.89180377,27.698236,27.694979)">
</g>
<g
   id="g6837"
   transform="matrix(0.89180377,0,0,0.89180377,27.698236,27.694979)">
</g>
<g
   id="g6839"
   transform="matrix(0.89180377,0,0,0.89180377,27.698236,27.694979)">
</g>
<g
   id="g6841"
   transform="matrix(0.89180377,0,0,0.89180377,27.698236,27.694979)">
</g>
<g
   id="g6843"
   transform="matrix(0.89180377,0,0,0.89180377,27.698236,27.694979)">
</g>
<g
   id="g6845"
   transform="matrix(0.89180377,0,0,0.89180377,27.698236,27.694979)">
</g>
<g
   id="g6847"
   transform="matrix(0.89180377,0,0,0.89180377,27.698236,27.694979)">
</g>
<g
   id="g6849"
   transform="matrix(0.89180377,0,0,0.89180377,27.698236,27.694979)">
</g>
<path
   inkscape:connector-curvature="0"
   style="fill:url(#linearGradient3665);fill-opacity:1;stroke:none;stroke-width:1.16819954;stroke-opacity:1"
   d="m 28.282651,234.76916 c 1.637814,0.71241 3.396363,1.56553 5.011158,2.24458 7.110917,2.99026 13.988046,5.66935 20.671026,8.03873 6.682965,2.36937 13.133126,4.42044 19.418238,6.21175 6.285094,1.7913 12.404737,3.28531 18.322046,4.54137 5.917309,1.25604 11.646261,2.26395 17.225851,3.02756 5.57959,0.76363 11.01431,1.30418 16.28627,1.61819 5.27196,0.31402 10.40448,0.40597 15.39887,0.3132 4.99439,-0.0927 9.86898,-0.37845 14.61588,-0.83519 4.7469,-0.45676 9.35559,-1.10129 13.88508,-1.87918 4.52949,-0.77791 8.96874,-1.71037 13.31089,-2.76658 8.68428,-2.11246 16.99258,-4.70449 25.10799,-7.67334 8.11541,-2.96884 16.01588,-6.27863 23.803,-9.76132 7.78712,-3.48268 15.47717,-7.15134 23.17661,-10.80531 7.69944,-3.65397 15.42864,-7.32262 23.28101,-10.80531 7.85236,-3.48269 15.8181,-6.79247 24.06399,-9.76132 8.2459,-2.96884 16.74995,-5.56087 25.62999,-7.67333 4.44001,-1.05622 8.98041,-1.98868 13.62408,-2.76658 4.64368,-0.7779 9.42529,-1.42243 14.30268,-1.87919 4.87739,-0.45674 9.84008,-0.74241 14.98128,-0.83519 5.14119,-0.0927 10.4336,-8.2e-4 15.86867,0.3132 5.43506,0.31402 11.04923,0.85457 16.80825,1.61819 5.75903,0.76362 11.68699,1.77152 17.80006,3.02757 6.11305,1.25605 12.39907,2.75006 18.89624,4.54136 6.49716,1.79131 13.18549,3.84238 20.09683,6.21176 5.22875,1.79253 10.70092,3.9624 16.18186,6.10734 C 457.6889,108.69717 365.16109,27.641292 253.47157,27.641292 c -118.47389,0 -215.518787,91.152048 -225.188919,207.127868 z"
   id="path3650" /><path
   inkscape:connector-curvature="0"
   sodipodi:nodetypes="csssssssc"
   id="path3594"
   d="m 253.68036,29.643366 c -32.35582,0 -62.15805,6.386888 -86.37269,17.065365 -36.196,15.962142 -59.78608,41.610635 -59.78608,70.629899 0,29.01927 23.59008,54.66776 59.78608,70.6299 24.21464,10.67848 54.01687,17.06536 86.37269,17.06536 32.35583,0 62.15804,-6.38688 86.37269,-17.06536 36.196,-15.96214 59.78609,-41.61063 59.78609,-70.6299 0,-29.019264 -23.59009,-54.667757 -59.78609,-70.629899 C 315.8384,36.030254 286.03619,29.643366 253.68036,29.643366 Z"
   style="fill:url(#linearGradient4378);fill-opacity:1;stroke:none;stroke-width:1.67038596" /><ellipse
   ry="208.83691"
   rx="210.51917"
   cy="256.88165"
   cx="253.44441"
   id="path3626"
   style="fill:none;stroke:url(#linearGradient3638);stroke-width:5.17665672;stroke-miterlimit:4;stroke-dasharray:none;stroke-opacity:1" /></svg>